<?xml version="1.0" encoding="UTF-8"?>
<svg width="240px" height="240px" viewBox="0 0 240 240" version="1.1" xmlns="http://www.w3.org/2000/svg" xmlns:xlink="http://www.w3.org/1999/xlink">
    <!-- Generator: Sketch 47.1 (45422) - http://www.bohemiancoding.com/sketch -->
    <title>Group 6</title>
    <desc>Created with Sketch.</desc>
    <defs></defs>
    <g id="Desktop-HD-v2" stroke="none" stroke-width="1" fill="none" fill-rule="evenodd">
        <g id="Desktop-HD---Actividades" transform="translate(-473.000000, -675.000000)">
            <g id="Group-6" transform="translate(473.000000, 675.000000)">
                <circle id="Oval" fill="#D2DDDE" cx="120" cy="120" r="120"></circle>
                <g id="microfono" transform="translate(65.000000, 65.000000)" fill-rule="nonzero" fill="#000000">
                    <path d="M103.563667,100.933489 C100.782798,98.1574819 96.2797743,98.1574819 93.498905,100.933489 L89.7808548,104.652185 C88.424696,105.951405 86.2724096,105.905153 84.9734158,104.548759 C83.7136939,103.233503 83.7136939,101.159167 84.9734158,99.8439107 L88.6914661,96.1252143 C91.4707086,93.3473481 91.4723353,88.841915 88.6947194,86.061957 C88.6935575,86.0607949 88.6923956,86.0596328 88.6914661,86.0587031 L83.4992089,80.8655435 L88.6914661,75.672384 C89.406726,74.9560701 89.4174154,73.7988582 88.7156334,73.0692965 L40.6970143,23.1922807 C42.213514,12.0038853 34.3744698,1.70449072 23.1880185,0.187727413 C12.0017995,-1.32903589 1.70396217,6.51137068 0.187694793,17.6997661 C-1.32880496,28.8881616 6.51023926,39.1875561 17.6966906,40.7043194 C18.6099367,40.8281985 19.5306189,40.8900218 20.452463,40.889557 C21.3738423,40.8816548 22.293595,40.8121616 23.2056792,40.68131 L73.0740283,88.711993 C73.8034633,89.4138969 74.9604741,89.4032057 75.6766635,88.6878215 L80.8707797,83.4946619 L86.0630369,88.6878215 C87.3880571,90.0165582 87.3880571,92.1673592 86.0630369,93.4960959 L82.3449866,97.2147924 C79.5657441,99.9945179 79.5657441,104.501578 82.3449866,107.281304 C85.1242292,110.061029 89.6305061,110.061029 92.4097487,107.281304 L96.127799,103.562607 C97.4735008,102.279657 99.5895361,102.279657 100.935238,103.562607 L108.371338,111 L111,108.370882 L103.563667,100.933489 Z M20.4522306,37.1708606 C16.6581927,37.1722551 12.9777877,35.8767542 10.0212406,33.4986479 L27.3436368,16.1732412 L24.7149752,13.5441229 L7.39257906,30.8695295 C1.62053841,23.6668794 2.77894345,13.1480817 9.98034204,7.3748055 C12.9508318,4.99344528 16.6451795,3.69794442 20.4522306,3.70259279 C24.2462685,3.70119828 27.9266735,4.99669914 30.8832206,7.3748055 L28.4330255,9.82542645 L31.061687,12.4545448 L33.5118821,10.0039239 C35.8895753,12.9609848 37.184851,16.6420294 37.1834568,20.4367267 C37.1767178,21.5437361 37.0609935,22.6472593 36.8376781,23.7314917 L23.7241148,36.847334 C22.6465774,37.0613915 21.5509145,37.1696985 20.4522306,37.1708606 Z M74.3397921,84.7701748 L26.8249687,39.0041779 L39.0164556,26.8105724 L84.7745001,74.3336533 L74.3397921,84.7701748 Z" id="Shape"></path>
                    <rect id="Rectangle-path" transform="translate(57.000000, 56.500000) rotate(-45.000000) translate(-57.000000, -56.500000) " x="55" y="53" width="4" height="7"></rect>
                    <rect id="Rectangle-path" transform="translate(51.000000, 50.500000) rotate(-45.000000) translate(-51.000000, -50.500000) " x="49" y="48" width="4" height="5"></rect>
                    <rect id="Rectangle-path" transform="translate(44.000000, 44.500000) rotate(-45.000000) translate(-44.000000, -44.500000) " x="42" y="42" width="4" height="5"></rect>
                    <path d="M57.2073673,89.3468132 C56.7110193,89.0019278 56.0731977,88.9078473 55.4925372,89.0934842 L44.0603366,92.7649183 C43.2819943,93.0148053 42.7568275,93.7165082 42.7570657,94.5070138 L42.7570657,104.386843 L40,105.714066 L41.7033979,109 L45.5141314,107.164283 C46.1600508,106.853358 46.5680374,106.217053 46.5677993,105.521316 L46.5677993,95.8305658 L54.1892664,93.3817193 L54.1892664,100.715409 L51.4322006,102.042632 L53.1355985,105.328566 L56.9463321,103.492849 C57.5922514,103.181924 58.0002381,102.545619 57.9999999,101.849882 L57.9999999,90.8355797 C57.9995236,90.2453967 57.704668,89.691469 57.2073673,89.3468132 Z" id="Shape"></path>
                    <path d="M71.7936838,2 L66.0674996,3.82722566 C65.2863526,4.07618516 64.7600208,4.7766978 64.7619296,5.56491727 L64.7619296,15.3990458 L62,16.7201299 L63.7064029,20 L67.5238591,18.1727743 C68.1740196,17.8616892 68.5834418,17.2242158 68.5793857,16.5282712 L68.5793857,6.88234697 L73,5.47172876 L71.7936838,2 Z" id="Shape"></path>
                    <path d="M99.9097957,52.8378918 C98.56209,53.9739051 96.43791,53.9739051 95.0902043,52.8378918 C92.3023054,50.3873694 87.7878988,50.3873694 85,52.8378918 L87.6353064,55.1587482 C88.9676364,53.989703 91.1225678,53.989703 92.4548979,55.1587482 C95.2393022,57.6125533 99.7553396,57.6139895 102.541841,55.1616206 C102.543005,55.1605947 102.54417,55.1595689 102.545102,55.1587482 C103.877432,53.989703 106.032364,53.989703 107.364694,55.1587482 L110,52.8378918 C107.212101,50.3873694 102.697695,50.3873694 99.9097957,52.8378918 Z" id="Shape"></path>
                    <polygon id="Shape" points="106 8 106 4 102 4 102 8 98 8 98 12 102 12 102 16 106 16 106 12 110 12 110 8"></polygon>
                    <polygon id="Shape" points="13 101.645463 10.354537 99 7 102.354537 3.64546305 99 1 101.645463 4.35453695 105 1 108.354537 3.64546305 111 7 107.645463 10.354537 111 13 108.354537 9.64546305 105"></polygon>
                    <path d="M21.5,57 C17.9101429,57 15,59.9101429 15,63.5 C15,67.0898571 17.9101429,70 21.5,70 C25.0898571,70 28,67.0898571 28,63.5 C28,59.9101429 25.0898571,57 21.5,57 Z M21.5,66.2857143 C19.9615893,66.2857143 18.7142857,65.0384107 18.7142857,63.5 C18.7142857,61.9615893 19.9615893,60.7142857 21.5,60.7142857 C23.0384107,60.7142857 24.2857143,61.9615893 24.2857143,63.5 C24.2857143,65.0384107 23.0386429,66.2857143 21.5,66.2857143 Z" id="Shape"></path>
                </g>
            </g>
        </g>
    </g>
</svg>