<?xml version="1.0" encoding="UTF-8"?>
<svg width="240px" height="240px" viewBox="0 0 240 240" version="1.1" xmlns="http://www.w3.org/2000/svg" xmlns:xlink="http://www.w3.org/1999/xlink">
    <!-- Generator: Sketch 47.1 (45422) - http://www.bohemiancoding.com/sketch -->
    <title>Group 4</title>
    <desc>Created with Sketch.</desc>
    <defs>
        <radialGradient cx="50%" cy="50%" fx="50%" fy="50%" r="73.6568618%" id="radialGradient-1">
            <stop stop-color="#FFFFFF" stop-opacity="0.5" offset="0%"></stop>
            <stop stop-color="#E69ED4" offset="100%"></stop>
        </radialGradient>
        <circle id="path-2" cx="120" cy="120" r="120"></circle>
    </defs>
    <g id="Desktop-HD-v2" stroke="none" stroke-width="1" fill="none" fill-rule="evenodd">
        <g id="Desktop-HD---Actividades" transform="translate(-160.000000, -675.000000)">
            <g id="Group-4" transform="translate(160.000000, 675.000000)">
                <g id="Oval">
                    <use fill="#E2D3DE" xlink:href="#path-2"></use>
                    <use fill="url(#radialGradient-1)" xlink:href="#path-2"></use>
                </g>
                <g id="002-mascaras" transform="translate(53.000000, 51.000000)" fill-rule="nonzero" fill="#000000">
                    <path d="M133.233252,21.0077227 C124.876059,12.6507486 109.466601,6.350892 98.8104733,3.49552928 C90.5202801,1.27431357 81.1949906,0 73.2256642,0 C68.2022405,0 63.8344216,0.487845656 60.2433829,1.44992754 C59.3401926,1.69201833 58.6348614,2.39735311 58.3927719,3.30054805 C57.6243665,6.16873503 56.9648361,9.16464127 56.4157508,12.236708 C56.3948133,12.3264778 56.3793719,12.417818 56.368118,12.5104668 C54.2361597,24.5972094 53.8215977,37.841015 55.2979514,49.1936336 C48.6945335,49.6184048 41.6608506,50.7715421 35.1893388,52.5056973 C24.5337344,55.3607983 9.12479982,61.6598698 0.766821582,70.017629 C0.105720814,70.6787331 -0.152857001,71.6423853 0.0892325523,72.5455803 C0.924637798,75.6631862 1.9440311,78.8436049 3.11705313,82.03109 C3.11862344,82.0350158 3.11993204,82.0389416 3.12150235,82.0428674 C7.16348186,93.0201798 13.0466506,104.078102 19.6673418,112.934176 C26.8517746,122.544526 38.1650774,134 51.2609445,134 C53.1427,134 55.016604,133.753722 56.8297894,133.267708 C64.8221469,131.126055 71.0997253,124.451678 74.9833652,113.966137 C77.9392132,105.986301 79.5129262,95.9407107 79.5851605,84.7553311 C80.6278467,84.9097457 81.6820486,84.9903554 82.7388676,84.9903554 C95.8339495,84.9903554 107.147252,73.5340958 114.332209,63.9237458 C122.878362,52.4920879 130.197318,37.3939976 133.910841,23.5359357 C134.152669,22.6327408 133.894615,21.6688268 133.233252,21.0077227 Z M55.4751347,128.211806 C54.1034684,128.57926 52.6854779,128.765605 51.2606828,128.765605 C42.7338961,128.765605 33.0026813,122.030246 23.8595477,109.800081 C17.866719,101.783605 12.5064637,91.879605 8.67359724,81.9400115 C10.084783,80.8452377 12.3392256,79.143274 14.6768947,77.5661506 C15.8750417,76.7576983 16.1911976,75.1311099 15.3827493,73.932695 C14.5743011,72.7345419 12.947721,72.4183844 11.7493123,73.2268368 C9.93612697,74.450115 8.19779312,75.72312 6.81853697,76.7658116 C6.36602579,75.3988492 5.94413567,74.0371212 5.55862442,72.6861238 C12.0801244,66.8264798 24.2602387,60.8524643 36.5442551,57.5615998 C42.8555952,55.8703667 49.7243956,54.7606748 56.1296926,54.3853687 C56.9671915,58.7524248 58.0957214,62.7038699 59.5016729,66.2137938 C59.5079541,66.2297587 59.5144971,66.2459853 59.52104,66.2624737 C59.6563485,66.5990453 59.7940124,66.9322146 59.9342934,67.2604112 C59.942145,67.2784698 59.9499966,67.2965285 59.9575864,67.3143254 C60.6773121,68.9919492 61.4632525,70.5617444 62.3156695,72.0197852 C62.3269234,72.0388908 62.3379156,72.0590432 62.3491695,72.0786722 C62.3523101,72.0839066 62.3554507,72.0888793 62.3585913,72.0941136 C62.4077944,72.1776023 62.454642,72.2639698 62.5043685,72.3469349 C62.6085324,72.5212403 62.7171456,72.6874324 62.8234033,72.8583354 C62.8919735,72.9685194 62.960282,73.0794886 63.0293757,73.188364 C63.1769849,73.4207712 63.3269495,73.6489908 63.4779611,73.8745933 C63.5512422,73.9839921 63.6247851,74.0923441 63.6991131,74.2001727 C63.8540505,74.4255134 64.0100346,74.6487603 64.1681126,74.8672964 C64.2340656,74.9586366 64.3013273,75.0473596 64.3678037,75.1373912 C64.5389676,75.3684897 64.7106549,75.5985414 64.8857445,75.8217884 C64.90485,75.8458666 64.9244789,75.8691596 64.9435843,75.8932379 C65.2880058,76.3295247 65.6405405,76.7485381 65.9998799,77.1542037 C64.4238115,79.1338521 62.0073652,80.3257239 59.4378136,80.3257239 C56.4518679,80.3257239 53.6695393,78.719288 52.1766973,76.1334966 C51.4540927,74.8819527 49.8542079,74.452994 48.6016235,75.1756022 C47.3498242,75.8984723 46.9208677,77.4988887 47.643734,78.7506943 C50.068817,82.9507732 54.5879092,85.5601194 59.4378136,85.5601194 C63.4795314,85.5601194 67.2906752,83.7466631 69.8523753,80.712284 C70.706886,81.3443373 71.5946349,81.9044176 72.5114346,82.399068 C72.5496455,82.4197438 72.5873329,82.4412048 72.6255438,82.461619 C72.8660631,82.5893382 73.1091995,82.7112997 73.3536445,82.829597 C73.4216913,82.8625737 73.4897381,82.8955504 73.5577849,82.9277419 C73.7930698,83.0387111 74.0304484,83.1457545 74.269659,83.2480869 C74.2987098,83.2606495 74.3272371,83.275044 74.3565496,83.2870832 C74.4444869,102.863722 69.5597741,124.437806 55.4751347,128.211806 Z M110.139741,60.7893898 C100.995822,73.0200782 91.2648691,79.75596 82.7388676,79.75596 C81.3145959,79.75596 79.8968671,79.5696155 78.5252008,79.2021609 C78.2710722,79.1341138 78.022178,79.0582151 77.7751158,78.978914 C77.7677876,78.9762968 77.7601978,78.9734179 77.752608,78.9708007 C66.4340708,75.3313255 62.3290171,60.0374689 60.889304,51.2447314 C60.8861634,51.2253642 60.880929,51.2067821 60.877265,51.1871531 C60.8513548,51.0288126 60.8262299,50.8723042 60.8018901,50.7176278 C59.1067398,39.9290153 59.3103567,27.0364376 61.2290145,15.1425826 C62.9963991,14.9004918 65.7996653,14.5534514 68.6194197,14.3561147 C70.0612266,14.2550908 71.148405,13.0045938 71.0473817,11.5625178 C70.9460966,10.1207036 69.7021489,9.02959387 68.2537991,9.13454349 C66.0815361,9.28634096 63.9485308,9.5184864 62.2366305,9.73100286 C62.4928529,8.52238095 62.7663486,7.32815363 63.0599967,6.15564905 C65.9307862,5.54374822 69.3412392,5.23439545 73.2256642,5.23439545 C80.7571356,5.23439545 89.5885625,6.44327908 97.4558187,8.55143184 C109.739312,11.8428197 121.919688,17.8176204 128.440926,23.6764792 C124.778438,36.5078145 118.002286,50.2721808 110.139741,60.7893898 Z" id="Shape"></path>
                    <path d="M115.653038,40.9771337 C113.256956,36.6735087 108.791906,34 104,34 C99.2080941,34 94.7427856,36.6735087 92.3469619,40.9771337 C91.6327401,42.2597206 92.0565669,43.8994905 93.2933963,44.6401355 C94.5307429,45.3805124 96.1120124,44.941274 96.825717,43.658687 C98.3007066,41.0090441 101.049762,39.3631067 104,39.3631067 C106.950238,39.3631067 109.699293,41.0090441 111.174283,43.658687 C111.653448,44.5189293 112.522306,45 113.416246,45 C113.854813,45 114.299327,44.8838887 114.706604,44.6401355 C115.943433,43.8994905 116.36726,42.2597206 115.653038,40.9771337 Z" id="Shape"></path>
                    <path d="M78.10811,25.9050625 C73.8568,23.364705 68.57564,23.3652533 64.3248598,25.9050625 C63.0579429,26.662208 62.6238061,28.3385095 63.3554022,29.6496706 C64.0869983,30.9605576 65.7062044,31.410404 66.9736511,30.6529844 C69.590392,29.0893501 72.8420481,29.0893501 75.4593188,30.6529844 C78.0768543,32.217167 79.7024175,35.131437 79.7024175,38.2587056 C79.7024175,39.7724484 80.8885462,41 82.3512087,41 C83.8138713,41 85,39.7724484 85,38.2587056 C85,33.1790872 82.3591551,28.44542 78.10811,25.9050625 Z" id="Shape"></path>
                    <path d="M94.2542777,59.5342999 C93.259472,58.5417708 91.6477187,58.5417708 90.6531677,59.5342999 C88.5996464,61.5846796 85.5793277,62.3926822 82.7744188,61.6418676 C79.9682367,60.8913071 77.7581232,58.6848678 77.0062263,55.8841818 C76.6423724,54.5284455 75.2467927,53.7240012 73.8876238,54.0872084 C72.5294735,54.4506698 71.7233422,55.8442773 72.0874508,57.2002679 C73.3088695,61.749381 76.8987761,65.3329069 81.4564986,66.5521546 C82.5821796,66.8533446 83.7292489,67 84.8681703,67 C88.3412057,67 91.7419287,65.6368927 94.2542777,63.1290092 C95.2485741,62.1364801 95.2485741,60.5270832 94.2542777,59.5342999 Z" id="Shape"></path>
                    <path d="M35.3512087,79 L35.3509439,79 C33.8882813,79 32.7021526,80.2273072 32.7021526,81.7410865 C32.7018877,84.8687049 31.0760596,87.7830455 28.4593188,89.3469918 C25.8420481,90.9106639 22.5909217,90.910938 19.9736511,89.3469918 C18.7064693,88.5898279 17.0867335,89.0394111 16.3554022,90.3503298 C15.6238061,91.6615226 16.0579429,93.3378646 17.3248598,94.0950285 C19.4502499,95.3651009 21.8333674,96 24.2164849,96 C26.5996024,96 28.9827199,95.3651009 31.1083749,94.0950285 C35.3591551,91.5546095 38,86.8213762 38,81.7413607 C37.9997351,80.2275813 36.8138713,79 35.3512087,79 Z" id="Shape"></path>
                    <path d="M61.2542776,108.870813 C57.9177191,105.540457 53.0144752,104.228953 48.4564979,105.447686 C43.8987753,106.666673 40.3086138,110.250179 39.0874497,114.80003 C38.7233411,116.156014 39.5294724,117.549359 40.8878775,117.912819 C41.1086342,117.97204 41.3301548,118.000252 41.5483653,117.999998 C42.6725187,117.999998 43.7014437,117.251221 44.0062255,116.115601 C44.7581224,113.314422 46.968236,111.108248 49.7741636,110.357946 C52.5803458,109.607644 55.5991368,110.415134 57.6531675,112.465502 C58.6477186,113.457772 60.2594719,113.457772 61.2542776,112.465502 C62.2485741,111.472979 62.2485741,109.86359 61.2542776,108.870813 Z" id="Shape"></path>
                    <path d="M75.958024,10.0553326 C75.8983616,10.0456303 75.8377291,10.0359281 75.7766115,10.0267234 C74.4504571,9.82695641 73.2198596,10.7688215 73.0258355,12.1281324 C72.832054,13.487692 73.7493027,14.7509754 75.0747295,14.9497473 L75.1906589,14.9681567 C75.320655,14.9895514 75.449681,15 75.5774943,15 C76.7477019,15 77.7779696,14.1285384 77.9690833,12.9053079 C78.1810546,11.5487336 77.2805404,10.2725138 75.958024,10.0553326 Z" id="Shape"></path>
                    <path d="M21.8427352,70.5992321 C21.3690736,69.3224613 19.9677639,68.67765 18.7121962,69.1600845 C18.6517132,69.1833165 18.5907445,69.2072899 18.5295328,69.232252 C17.2834383,69.7381656 16.6764227,71.1758303 17.173646,72.4437038 C17.5530611,73.4110443 18.4658921,74 19.4307044,74 C19.7302043,74 20.0348052,73.9431558 20.3301757,73.8232886 L20.4283087,73.7844862 C21.6833906,73.3022989 22.3166398,71.8762501 21.8427352,70.5992321 Z" id="Shape"></path>
                </g>
            </g>
        </g>
    </g>
</svg>