<?xml version="1.0" encoding="UTF-8"?>
<svg width="240px" height="240px" viewBox="0 0 240 240" version="1.1" xmlns="http://www.w3.org/2000/svg" xmlns:xlink="http://www.w3.org/1999/xlink">
    <!-- Generator: Sketch 47.1 (45422) - http://www.bohemiancoding.com/sketch -->
    <title>Group 2</title>
    <desc>Created with Sketch.</desc>
    <defs>
        <radialGradient cx="50%" cy="50%" fx="50%" fy="50%" r="50%" id="radialGradient-1">
            <stop stop-color="#FFFFFF" offset="0%"></stop>
            <stop stop-color="#DBE2DD" offset="100%"></stop>
        </radialGradient>
        <circle id="path-2" cx="120" cy="120" r="120"></circle>
    </defs>
    <g id="Desktop-HD-v2" stroke="none" stroke-width="1" fill="none" fill-rule="evenodd">
        <g id="Desktop-HD---Actividades" transform="translate(-160.000000, -302.000000)">
            <g id="Group-2" transform="translate(160.000000, 302.000000)">
                <g id="Oval">
                    <use fill="#E2D3DE" xlink:href="#path-2"></use>
                    <use fill="url(#radialGradient-1)" xlink:href="#path-2"></use>
                </g>
                <g id="001-controlar" transform="translate(59.000000, 66.000000)" fill-rule="nonzero" fill="#000000">
                    <path d="M114.635413,0 L7.36506393,0 C3.30402072,0 0,3.31355947 0,7.38632696 L0,81.6627759 C0,85.7355434 3.30402072,89.0491029 7.36506393,89.0491029 L44.1224731,89.0491029 L44.1224731,94.4235405 C44.1224731,99.3503872 40.1255278,103.358872 35.2128641,103.358872 L27.1119848,103.358872 C25.5588616,103.358872 24.2995402,104.62159 24.2995402,106.179436 C24.2995402,107.737282 25.5588616,109 27.1119848,109 L94.8880152,109 C96.4411384,109 97.7004598,107.737282 97.7004598,106.179436 C97.7004598,104.62159 96.4411384,103.358872 94.8880152,103.358872 L86.7868976,103.358872 C81.8742339,103.358872 77.8772886,99.3503872 77.8772886,94.4235405 L77.8772886,89.0493418 L114.634698,89.0493418 C118.695741,89.0493418 122,85.7357824 122,81.6630149 L122,7.38632696 C122.000477,3.31355947 118.696456,0 114.635413,0 Z M46.6842449,103.35935 C48.6014633,100.889355 49.7478389,97.7894345 49.7478389,94.4240185 L49.7478389,89.0495808 L72.252876,89.0495808 L72.252876,94.4240185 C72.252876,97.7894345 73.3992516,100.889594 75.31647,103.35935 L46.6842449,103.35935 Z M116.375587,81.6630149 C116.375587,82.6253475 115.594975,83.4084525 114.635174,83.4084525 L7.36506393,83.4084525 C6.40550158,83.4084525 5.62465088,82.6255865 5.62465088,81.6630149 L5.62465088,66.8389824 L116.375587,66.8389824 L116.375587,81.6630149 Z M116.375587,61.1976151 L5.62488916,61.1976151 L5.62488916,7.38632696 C5.62488916,6.42399435 6.40550158,5.64088932 7.36530221,5.64088932 L114.635174,5.64088932 C115.594737,5.64088932 116.375826,6.42375538 116.375826,7.38632696 L116.375826,61.1976151 L116.375587,61.1976151 Z" id="Shape"></path>
                    <circle id="Oval" cx="61" cy="75" r="3"></circle>
                    <path d="M65.1925028,18.8074953 C64.1156064,17.7308349 62.37038,17.7308349 61.2930163,18.8074953 L41.8074972,38.2929689 C40.7308343,39.3696293 40.7308343,41.1155524 41.8074972,42.1924463 C42.346179,42.7308933 43.0514177,43 43.7573572,43 C44.4632968,43 45.1685355,42.7308933 45.7069837,42.1924463 L65.1925028,22.7069727 C66.2691657,21.6303123 66.2691657,19.8843892 65.1925028,18.8074953 Z" id="Shape"></path>
                    <path d="M77.2093366,30.8515388 C76.1553475,29.7161948 74.4465035,29.7161948 73.3913707,30.8512925 L65.7906634,39.0364109 C64.7364455,40.1720013 64.7364455,42.0130864 65.7906634,43.1484304 C66.3178867,43.7162256 67.0086522,44 67.6996463,44 C68.3904118,44 69.081406,43.7162256 69.6086293,43.1484304 L77.2093366,34.9633119 C78.2635545,33.8279679 78.2635545,31.9868828 77.2093366,30.8515388 Z" id="Shape"></path>
                </g>
            </g>
        </g>
    </g>
</svg>