<?xml version="1.0" encoding="UTF-8"?>
<svg width="240px" height="240px" viewBox="0 0 240 240" version="1.1" xmlns="http://www.w3.org/2000/svg" xmlns:xlink="http://www.w3.org/1999/xlink">
    <!-- Generator: Sketch 47.1 (45422) - http://www.bohemiancoding.com/sketch -->
    <title>Group 3</title>
    <desc>Created with Sketch.</desc>
    <defs></defs>
    <g id="Desktop-HD-v2" stroke="none" stroke-width="1" fill="none" fill-rule="evenodd">
        <g id="Desktop-HD---Actividades" transform="translate(-473.000000, -302.000000)">
            <g id="Group-3" transform="translate(473.000000, 302.000000)">
                <circle id="Oval" fill="#E2D3DE" cx="120" cy="120" r="120"></circle>
                <g id="004-paleta-de-pintura" transform="translate(57.000000, 56.000000)" fill-rule="nonzero" fill="#000000">
                    <circle id="Oval" cx="84.5" cy="60.5" r="2.5"></circle>
                    <path d="M83.8643527,71.0283831 C82.4985821,70.8184674 81.2253807,71.7955719 81.0229795,73.209591 C80.3392186,77.9864027 76.4363021,81.948141 70.5829282,83.8076162 C64.3265032,85.7952151 55.6422639,85.1289721 50.3445553,79.1604812 C49.4098568,78.1075378 47.8271742,78.0381698 46.8096638,79.0046621 C45.7919033,79.9716721 45.724603,81.6090663 46.6590513,82.6617508 C49.7258429,86.1169478 53.8912055,88.4718344 58.7048024,89.4717165 C60.4045725,89.8247683 62.1678902,90 63.9427164,90 C66.684265,90 69.4528338,89.5819804 72.0517758,88.7562948 C79.7950619,86.2965797 84.9992007,80.7683681 85.9726781,73.9679794 C86.1750794,72.5539604 85.231124,71.2377811 83.8643527,71.0283831 Z" id="Shape"></path>
                    <path d="M119.143532,47.9746465 C114.6006,42.6657422 108.330575,39.2235586 100.78335,37.8410918 C108.009151,32.9254863 114.241685,28.0335645 118.68564,23.7649746 C125.461296,17.2567734 127.733261,12.6833203 125.836208,9.3729082 C123.725204,5.68582617 117.631388,5.71127344 106.657469,9.45378516 C97.3853995,12.6157969 85.8346164,18.1076191 74.1333686,24.9179121 C72.112094,26.0940293 70.109815,27.2983652 68.1507758,28.5120234 C66.6978675,24.375709 67.6561421,19.650832 70.8618881,15.5538223 C73.2630733,12.4850332 73.7991972,8.58731836 72.2613089,5.38121484 C70.6491881,2.02091602 67.1110203,0.0090703125 62.7907865,0 L62.6733141,0 C47.4254005,0 32.5111585,6.06476367 20.6781917,17.0771309 C8.83047838,28.1031035 1.57718442,42.699252 0.254495527,58.1764805 C-1.33688017,76.8159727 4.57372961,94.5368437 16.8970811,108.074537 C29.0027337,121.373127 46.164947,129 63.9830061,129 C73.5757498,129 82.5811316,127.230785 90.7484606,123.740982 C98.216704,120.549996 104.848644,115.993676 110.460324,110.197998 C115.66335,104.82409 119.765636,98.6378848 122.653206,91.8107109 C125.40106,85.3143516 126.902207,78.4299844 126.995185,71.9021309 C127.130403,62.409041 124.415292,54.1351523 119.143532,47.9746465 Z M68.442957,34.2626016 C71.0883348,32.5808145 73.8434368,30.9050742 76.6325308,29.2819922 C87.4514861,22.9851797 98.2249521,17.7987246 106.968645,14.6777813 C116.593882,11.2424004 120.534705,11.4666387 121.453489,11.9100762 C121.374007,12.4963711 120.651677,15.1048418 114.335413,20.9682949 C109.061153,25.8645 101.359215,31.6223848 92.6485137,37.1812266 C89.8949114,38.9391035 87.0290854,40.6861465 84.1310171,42.3732246 C80.1357068,44.6977441 76.1433958,46.8713438 72.2250674,48.8615215 C71.4432513,46.5614414 70.441237,44.3293887 69.2217738,42.1998809 C68.0398019,40.1361328 66.6688743,38.1986133 65.1364847,36.4059668 C66.2209797,35.6894121 67.3244701,34.9728574 68.442957,34.2626016 Z M67.6966326,51.0965977 C60.6390426,54.470502 54.1630658,57.0426914 48.9915322,58.5347578 C48.7223455,57.2314043 48.2489568,55.9716387 47.5773648,54.798041 C46.9407645,53.685668 46.1422024,52.691209 45.2191695,51.8335605 C49.0907588,48.0671133 54.5399771,43.7032852 60.9564679,39.2389277 C62.4461175,40.9171875 63.7668069,42.752918 64.8927921,44.7189082 C66.0572682,46.7521699 66.9945477,48.890748 67.6966326,51.0965977 Z M121.996861,71.8298203 C121.640445,96.9011719 99.3589353,123.960938 63.9830061,123.960938 C47.5613686,123.960938 31.7418394,116.928926 20.5804647,104.667879 C9.21488797,92.1825938 3.76541973,75.825041 5.23507405,58.608832 C7.75923035,29.0703516 33.5259198,5.0390625 62.6733141,5.0390625 L62.7855377,5.0390625 C65.1767253,5.04410156 66.9902987,5.96826563 67.7608675,7.5749707 C68.4694508,9.05191992 68.1615232,10.867998 66.9368113,12.4331309 C62.4321208,18.1902598 61.3023866,25.2708984 63.8475379,31.2409277 C62.5076031,32.1111738 61.1906628,32.9851992 59.9182121,33.8521699 C59.9122135,33.8562012 59.9062149,33.8602324 59.9004663,33.8642637 C51.9525857,39.2704219 45.2411643,44.6478574 40.7757146,49.1731875 C37.3890112,48.0063926 33.6678864,48.3465293 30.5051303,50.1867949 C25.3123517,53.2104844 18.4939555,67.3009629 17.1800145,70.0948711 C16.8280973,70.842668 16.863339,71.7171973 17.2737425,72.4340039 C17.6843959,73.1508105 18.4179733,73.6186875 19.2362809,73.685707 C20.6177059,73.798582 24.5405332,74.083793 28.9067563,74.083793 C34.2050101,74.083793 40.1556105,73.6635352 43.0024409,72.0059355 C46.0862155,70.2115254 48.2237128,67.2132832 48.9640386,63.7665645 C55.093347,62.1447422 63.1017133,58.9718965 71.7751733,54.712125 C76.6347802,52.3278926 81.6326047,49.6448438 86.6304292,46.7373047 C89.1655829,45.2613633 91.6719934,43.7398184 94.1079204,42.2051719 C94.122667,42.2059277 94.1369136,42.2081953 94.1516601,42.2086992 C114.98401,42.8108672 122.195064,57.904875 121.996861,71.8298203 Z M44.2401497,61.5697852 C44.0801874,64.1036777 42.6835159,66.3732715 40.5030287,67.6421074 C38.1393347,69.0185273 30.0192446,69.2039648 23.3520628,68.896582 C26.4200912,62.9242852 30.6388489,55.9285547 33.0050423,54.550875 C35.2390169,53.2507969 37.9398816,53.1938555 40.2313426,54.3989473 C41.4907964,55.0600723 42.5335511,56.0686406 43.2473832,57.3160605 C43.9899586,58.6136191 44.3331279,60.0845215 44.2401497,61.5697852 Z" id="Shape"></path>
                    <path d="M43.5,16 C38.2617,16 34,20.2617 34,25.5 C34,30.7383 38.2617,35 43.5,35 C48.7383,35 53,30.7383 53,25.5 C53,20.2617 48.7383,16 43.5,16 Z M43.5,30.25 C40.88085,30.25 38.75,28.11915 38.75,25.5 C38.75,22.88085 40.88085,20.75 43.5,20.75 C46.11915,20.75 48.25,22.88085 48.25,25.5 C48.25,28.11915 46.11915,30.25 43.5,30.25 Z" id="Shape"></path>
                    <path d="M31.5,84 C26.2617,84 22,88.2617 22,93.5 C22,98.7383 26.2617,103 31.5,103 C36.7383,103 41,98.7383 41,93.5 C41,88.2617 36.7383,84 31.5,84 Z M31.5,98.25 C28.88085,98.25 26.75,96.11915 26.75,93.5 C26.75,90.88085 28.88085,88.75 31.5,88.75 C34.11915,88.75 36.25,90.88085 36.25,93.5 C36.25,96.11915 34.11915,98.25 31.5,98.25 Z" id="Shape"></path>
                    <path d="M55.5,98 C50.2617,98 46,102.2617 46,107.5 C46,112.7383 50.2617,117 55.5,117 C60.7383,117 65,112.7383 65,107.5 C65,102.2617 60.7383,98 55.5,98 Z M55.5,112.25 C52.88085,112.25 50.75,110.11915 50.75,107.5 C50.75,104.88085 52.88085,102.75 55.5,102.75 C58.11915,102.75 60.25,104.88085 60.25,107.5 C60.25,110.11915 58.11915,112.25 55.5,112.25 Z" id="Shape"></path>
                    <path d="M86.5,93 C81.2617,93 77,97.2617 77,102.5 C77,107.7383 81.2617,112 86.5,112 C91.7383,112 96,107.7383 96,102.5 C96,97.2617 91.7383,93 86.5,93 Z M86.5,107.25 C83.88085,107.25 81.75,105.11915 81.75,102.5 C81.75,99.88085 83.88085,97.75 86.5,97.75 C89.11915,97.75 91.25,99.88085 91.25,102.5 C91.25,105.11915 89.11915,107.25 86.5,107.25 Z" id="Shape"></path>
                    <path d="M106.5,68 C101.2617,68 97,72.2617 97,77.5 C97,82.7383 101.2617,87 106.5,87 C111.7383,87 116,82.7383 116,77.5 C116,72.2617 111.7383,68 106.5,68 Z M106.5,82.25 C103.88085,82.25 101.75,80.11915 101.75,77.5 C101.75,74.88085 103.88085,72.75 106.5,72.75 C109.11915,72.75 111.25,74.88085 111.25,77.5 C111.25,80.11915 109.11915,82.25 106.5,82.25 Z" id="Shape"></path>
                </g>
            </g>
        </g>
    </g>
</svg>