<?xml version="1.0" encoding="UTF-8"?>
<svg width="240px" height="240px" viewBox="0 0 240 240" version="1.1" xmlns="http://www.w3.org/2000/svg" xmlns:xlink="http://www.w3.org/1999/xlink">
    <!-- Generator: Sketch 47.1 (45422) - http://www.bohemiancoding.com/sketch -->
    <title>Group 3</title>
    <desc>Created with Sketch.</desc>
    <defs>
        <radialGradient cx="50%" cy="50%" fx="50%" fy="50%" r="73.6568618%" id="radialGradient-1">
            <stop stop-color="#FFFFFF" stop-opacity="0.5" offset="0%"></stop>
            <stop stop-color="#E69ED4" offset="100%"></stop>
        </radialGradient>
        <circle id="path-2" cx="120" cy="120" r="120"></circle>
    </defs>
    <g id="Desktop-HD-v2" stroke="none" stroke-width="1" fill="none" fill-rule="evenodd">
        <g id="Desktop-HD---Colabora" transform="translate(-805.000000, -1144.000000)">
            <g id="Group-3" transform="translate(805.000000, 1144.000000)">
                <g id="Oval">
                    <use fill="#E2D3DE" xlink:href="#path-2"></use>
                    <use fill="url(#radialGradient-1)" xlink:href="#path-2"></use>
                </g>
                <g id="001-mano" transform="translate(76.000000, 52.000000)" fill-rule="nonzero" fill="#000000">
                    <path d="M85.8954371,85 C84.7328771,85 83.7908742,85.9087923 83.7908742,87.0297695 C83.7908742,95.084525 79.683033,102.621763 72.8025928,107.19188 C66.0386576,111.684597 62,119.19034 62,127.269917 L62,134.97023 C62,136.091208 62.9420029,137 64.1045629,137 C65.2671229,137 66.2091258,136.091208 66.2091258,134.97023 L66.2091258,127.269917 C66.2091258,120.526438 69.5667408,114.270585 75.189978,110.535328 C83.2113929,105.207483 88,96.4206231 88,87.0300364 C88,85.9087923 87.0577203,85 85.8954371,85 Z" id="Shape"></path>
                    <path d="M78.1358093,52 C72.6964403,52 68.2710818,56.4020246 68.2710818,61.8123848 L68.2710818,78.087782 C68.2710818,78.0912526 68.2716186,78.0947232 68.2716186,78.0984607 L68.2716186,79.9229155 L44.0279651,104.037275 L10.0470735,70.2352045 C8.43802302,68.6347353 7.13414191,66.8014705 6.17085881,64.7850662 C5.69820862,63.7980879 5.30607806,62.7641234 5.00520306,61.7114711 C4.6968129,60.632923 3.56846458,60.0068846 2.48359685,60.3136301 C1.39926591,60.6203756 0.770139254,61.7432402 1.07826101,62.8217883 C1.44140452,64.0922859 1.9148599,65.3403582 2.48440204,66.5296978 C3.64764221,68.9644399 5.22072725,71.1767983 7.16044499,73.1061713 L10.2150911,76.1447937 L10.2150911,84.6105951 C10.2150911,95.1429909 13.8059979,105.455405 20.3420442,113.73433 L20.3420442,134.969713 C20.3420442,136.090976 21.2559419,137 22.3832166,137 C23.5104914,137 24.4243891,136.090976 24.4243891,134.969713 L24.4243891,113.023663 C24.4243891,112.558072 24.2636183,112.106897 23.9689164,111.745156 C17.7321348,104.093338 14.297436,94.4568848 14.297436,84.6105951 L14.297436,80.2059009 L42.5839798,108.343992 C42.9669849,108.724955 43.4857996,108.938795 44.0274283,108.938795 C44.5687886,108.938795 45.0881401,108.724955 45.4706084,108.343992 L70.1042452,83.8419962 C70.1726869,83.8486703 70.2419338,83.8526749 70.3122543,83.8526749 C71.4397974,83.8526749 72.3534267,82.943651 72.3534267,81.8223882 L72.3534267,80.7651975 C72.3534267,80.7643966 72.3534267,80.7633287 72.3534267,80.7625278 L72.3534267,61.8115839 C72.3534267,61.8099821 72.3531583,61.8083803 72.3531583,61.8067785 C72.3561107,58.6378761 74.9488426,56.0605733 78.1352725,56.0605733 C81.3238496,56.0605733 83.9176551,58.6408127 83.9176551,61.8123848 L83.9176551,80.0321052 C83.9176551,81.153368 84.8312844,82.0623918 85.9588275,82.0623918 C87.0863707,82.0623918 88,81.153368 88,80.0321052 L88,61.8123848 C88.0008052,56.4020246 83.5751783,52 78.1358093,52 Z" id="Shape"></path>
                    <path d="M86.9179619,49.3189056 C85.8011128,45.5113706 83.7096421,42.0082996 80.8693932,39.1872708 C78.4391575,36.7755741 75.5034629,34.9071628 72.310737,33.7261305 L72.310737,18.3313504 C72.310737,15.8646847 71.3422993,13.5434466 69.5826032,11.7935121 C67.8234449,10.0475803 65.4838154,9.08589016 62.994968,9.08589016 C61.0605122,9.08589016 59.2621001,9.67480528 57.7718029,10.6813244 L57.7718029,9.24305872 C57.7718029,6.77479193 56.8028274,4.45382064 55.0436691,2.70788879 C53.2845107,0.961956947 50.9451501,0 48.4563027,0 C43.3210552,0 39.1432222,4.14642136 39.1432222,9.24279188 L39.1432222,12.8403241 C37.6131335,11.8071209 35.8088065,11.2504934 33.9170997,11.2504934 C28.7818522,11.2504934 24.604288,15.398249 24.604288,20.4959537 L24.604288,27.4375204 C23.1129154,26.4392733 21.3139656,25.8612986 19.3781655,25.8612986 C16.8874361,25.8612986 14.5483443,26.8235224 12.7921434,28.5702547 C11.0337917,30.3185881 10.0656228,32.64036 10.0656228,35.1067589 L10.0656228,36.619206 C8.98399446,37.3815669 7.95802041,38.2410574 7.00571431,39.1862035 C2.53966218,43.6186769 0.0537722248,49.5072944 0.00295747237,55.7702879 C0.000537722248,55.8369978 0,55.9053087 0,55.9706844 C0,57.091411 0.915472128,58 2.04468885,58 C3.17390557,58 4.0893777,57.091411 4.0893777,55.9706844 L4.08883998,55.9373295 C4.090722,55.903174 4.09179745,55.8687517 4.09206631,55.8348631 C4.12567395,50.6314898 6.18730105,45.7381843 9.89704684,42.0557971 C10.9136107,41.0468764 12.028309,40.1556319 13.2166751,39.4023436 C17.0885442,36.9284732 21.7583931,35.8760576 26.3664039,36.4390892 C26.3889882,36.4417576 26.4118414,36.4441592 26.4344257,36.4462939 C30.8243902,37.0010536 34.8032659,38.9401773 37.9381866,42.0515277 L42.4902743,46.5720582 C43.2882541,47.3643051 44.5828205,47.364572 45.3810691,46.5725919 L49.4978707,42.4899452 L49.9318125,42.0563308 C51.8278212,40.1743107 54.0362464,38.7184336 56.4949814,37.729259 C60.6720078,36.0492365 65.3531489,35.8352311 69.6793932,37.1270019 C72.7903853,38.0516013 75.6599401,39.756173 77.9772541,42.0560639 C80.3324775,44.3951803 82.0660941,47.2986626 82.9912452,50.4527073 C83.3068882,51.5288716 84.4404067,52.1474059 85.5260679,51.8341362 C86.6106537,51.5211332 87.2336049,50.3948031 86.9179619,49.3189056 Z M14.227593,34.2710171 C14.4012773,33.2047258 14.9008212,32.2190201 15.6864334,31.4374468 C16.6701963,30.4589458 17.9811631,29.9199297 19.3778967,29.9199297 C21.1967422,29.9199297 22.798079,30.8295861 23.7345223,32.2339632 C20.4514591,32.260914 17.2116826,32.9595002 14.227593,34.2710171 Z M39.1432222,37.6625491 C36.1107376,35.1673315 32.5569312,33.4803712 28.6933969,32.7076035 L28.6933969,20.4959537 C28.6933969,17.6359663 31.0365216,15.3091245 33.9168308,15.3091245 C35.3135643,15.3091245 36.6258755,15.8484075 37.6112515,16.8266416 C38.5990473,17.8088784 39.1432222,19.1121233 39.1432222,20.4962205 L39.1432222,37.6625491 Z M53.6824252,18.3313504 L53.6824252,34.5293179 C51.2231525,35.6887361 48.9916052,37.2494813 47.0353716,39.1912734 L43.9364783,42.2679346 L43.2325999,41.5688147 L43.2325999,9.24279188 C43.2325999,6.38413868 45.5757246,4.05863111 48.4563027,4.05863111 C49.8527674,4.05863111 51.1653474,4.59791405 52.1520677,5.57748241 C53.1390569,6.55705078 53.6826941,7.8586946 53.6826941,9.24305872 L53.6826941,18.3313504 L53.6824252,18.3313504 Z M68.2216282,32.6179454 C64.7519754,31.9967427 61.1737027,32.1387014 57.7718029,33.0368837 L57.7718029,18.3313504 C57.7718029,15.471363 60.1146587,13.1445213 62.994968,13.1445213 C64.3917015,13.1445213 65.7042815,13.6840711 66.6896575,14.6620384 C67.6777222,15.644542 68.2216282,16.94752 68.2216282,18.3316173 L68.2216282,32.6179454 Z" id="Shape"></path>
                </g>
            </g>
        </g>
    </g>
</svg>