<?xml version="1.0" encoding="UTF-8"?>
<svg width="240px" height="240px" viewBox="0 0 240 240" version="1.1" xmlns="http://www.w3.org/2000/svg" xmlns:xlink="http://www.w3.org/1999/xlink">
    <!-- Generator: Sketch 47.1 (45422) - http://www.bohemiancoding.com/sketch -->
    <title>Group 4</title>
    <desc>Created with Sketch.</desc>
    <defs>
        <radialGradient cx="50%" cy="50%" fx="50%" fy="50%" r="73.6568618%" id="radialGradient-1">
            <stop stop-color="#FFFFFF" stop-opacity="0.5" offset="0%"></stop>
            <stop stop-color="#E69ED4" offset="100%"></stop>
        </radialGradient>
        <circle id="path-2" cx="120" cy="120" r="120"></circle>
    </defs>
    <g id="Desktop-HD-v2" stroke="none" stroke-width="1" fill="none" fill-rule="evenodd">
        <g id="Desktop-HD---Landing" transform="translate(-945.000000, -1144.000000)">
            <g id="Group-4" transform="translate(945.000000, 1144.000000)">
                <g id="Oval">
                    <use fill="#E2D3DE" xlink:href="#path-2"></use>
                    <use fill="url(#radialGradient-1)" xlink:href="#path-2"></use>
                </g>
                <g id="003-medico" transform="translate(68.000000, 74.000000)" fill-rule="nonzero" fill="#000000">
                    <path d="M96.4591333,9.25139711 L95.0766314,7.8610309 C95.0701509,7.85451356 95.0636705,7.84799622 95.057406,7.84169612 C84.6428463,-2.62146138 67.7659541,-2.61277159 57.3619791,7.8610309 L52.13785,13.1148772 L46.9137209,7.8610309 C46.9072404,7.85451356 46.90076,7.84799622 46.8944955,7.84169612 C36.4799357,-2.62146138 19.6030436,-2.61277159 9.19906864,7.8610309 L7.81656672,9.25139711 C7.81008625,9.25791445 7.80360577,9.2644318 7.79734131,9.27073189 C-2.60663366,19.7445344 -2.59799302,36.7174299 7.81656672,47.1805874 L50.916064,90.530468 C51.2409519,90.8545971 51.6803283,91.0357792 52.13785,91.0344758 C52.5953718,91.0357792 53.0347481,90.8545971 53.3596361,90.530468 L96.4591333,47.1805874 C96.4656138,47.1740701 96.4720943,47.1675527 96.4783588,47.1612526 C106.88255,36.6872329 106.873909,19.7145546 96.4591333,9.25139711 Z M94.0155612,44.7231151 L52.13785,86.8390457 L10.2566826,44.730067 C1.20215912,35.6064404 1.20215912,20.8324959 10.2566826,11.7088694 L11.6391845,10.3185032 C15.9908253,5.9373289 21.8988609,3.48050835 28.0563948,3.49180507 C34.2089603,3.48268079 40.1122435,5.93667716 44.4632363,10.3115514 L50.9091515,16.7941338 C51.5839852,17.4725891 52.6778898,17.4725891 53.3527236,16.7941338 L59.7986388,10.3115514 C68.8706595,1.20552163 83.5610385,1.20552163 92.6330593,10.3115514 L94.0155612,11.7019176 C103.070301,20.8255441 103.070301,35.5994886 94.0155612,44.7231151 Z" id="Shape"></path>
                    <path d="M16.818232,15.4553993 L15.4603434,16.8138174 C12.4432846,19.8080683 10.7499551,23.8862944 10.758654,28.137931 L14.1533756,28.137931 C14.1472227,24.7875199 15.4824091,21.5740119 17.8604115,19.2148216 L19.2183002,17.8564034 C21.5776316,15.4798083 24.7896747,14.1468605 28.137931,14.1547138 L28.137931,10.7586684 C23.8890127,10.748268 19.8125886,12.4394986 16.818232,15.4553993 Z" id="Shape"></path>
                    <path d="M91.8103448,19.5517241 L84.9827586,19.5517241 L84.9827586,12.5172414 C84.9827586,11.5460431 84.2184957,10.7586207 83.2758621,10.7586207 L76.4482759,10.7586207 C75.5056422,10.7586207 74.7413793,11.5460431 74.7413793,12.5172414 L74.7413793,19.5517241 L67.9137931,19.5517241 C66.9711595,19.5517241 66.2068966,20.3391466 66.2068966,21.3103448 L66.2068966,28.3448276 C66.2068966,29.3160259 66.9711595,30.1034483 67.9137931,30.1034483 L74.7413793,30.1034483 L74.7413793,37.137931 C74.7413793,38.1091293 75.5056422,38.8965517 76.4482759,38.8965517 L83.2758621,38.8965517 C84.2184957,38.8965517 84.9827586,38.1091293 84.9827586,37.137931 L84.9827586,30.1034483 L91.8103448,30.1034483 C92.7529784,30.1034483 93.5172414,29.3160259 93.5172414,28.3448276 L93.5172414,21.3103448 C93.5172414,20.3391466 92.7531918,19.5517241 91.8103448,19.5517241 Z M90.1034483,26.5862069 L83.2758621,26.5862069 C82.3332284,26.5862069 81.5689655,27.3736293 81.5689655,28.3448276 L81.5689655,35.3793103 L78.1551724,35.3793103 L78.1551724,28.3448276 C78.1551724,27.3736293 77.3909095,26.5862069 76.4482759,26.5862069 L69.6206897,26.5862069 L69.6206897,23.0689655 L76.4482759,23.0689655 C77.3909095,23.0689655 78.1551724,22.2815431 78.1551724,21.3103448 L78.1551724,14.2758621 L81.5689655,14.2758621 L81.5689655,21.3103448 C81.5689655,22.2815431 82.3332284,23.0689655 83.2758621,23.0689655 L90.1034483,23.0689655 L90.1034483,26.5862069 Z" id="Shape"></path>
                </g>
            </g>
        </g>
    </g>
</svg>