<?xml version="1.0" encoding="UTF-8"?>
<svg width="240px" height="240px" viewBox="0 0 240 240" version="1.1" xmlns="http://www.w3.org/2000/svg" xmlns:xlink="http://www.w3.org/1999/xlink">
    <!-- Generator: Sketch 47.1 (45422) - http://www.bohemiancoding.com/sketch -->
    <title>Group 2</title>
    <desc>Created with Sketch.</desc>
    <defs>
        <radialGradient cx="50%" cy="50%" fx="50%" fy="50%" r="111.335226%" id="radialGradient-1">
            <stop stop-color="#FFFFFF" stop-opacity="0.5" offset="0%"></stop>
            <stop stop-color="#242424" stop-opacity="0.5" offset="100%"></stop>
        </radialGradient>
        <circle id="path-2" cx="120" cy="120" r="120"></circle>
    </defs>
    <g id="Desktop-HD-v2" stroke="none" stroke-width="1" fill="none" fill-rule="evenodd">
        <g id="Desktop-HD---Landing" transform="translate(-245.000000, -1144.000000)">
            <g id="Group-2" transform="translate(245.000000, 1144.000000)">
                <g id="Oval">
                    <use fill="#FFFFFF" xlink:href="#path-2"></use>
                    <use fill="url(#radialGradient-1)" xlink:href="#path-2"></use>
                </g>
                <g id="004-hospital" transform="translate(59.000000, 55.000000)" fill-rule="nonzero" fill="#000000">
                    <path d="M96,56.2758621 L96,69.5172414 L113.37931,69.5172414 L113.37931,56.2758621 L96,56.2758621 Z M109.034483,65.1034483 L100.344828,65.1034483 L100.344828,60.6896552 L109.034483,60.6896552 L109.034483,65.1034483 Z" id="Shape"></path>
                    <path d="M96,73.6551724 L96,86.8965517 L113.37931,86.8965517 L113.37931,73.6551724 L96,73.6551724 Z M109.034483,82.4827586 L100.344828,82.4827586 L100.344828,78.0689655 L109.034483,78.0689655 L109.034483,82.4827586 Z" id="Shape"></path>
                    <path d="M96,91.0344828 L96,104.275862 L113.37931,104.275862 L113.37931,91.0344828 L96,91.0344828 Z M109.034483,99.862069 L100.344828,99.862069 L100.344828,95.4482759 L109.034483,95.4482759 L109.034483,99.862069 Z" id="Shape"></path>
                    <path d="M96,108.413793 L96,121.655172 L113.37931,121.655172 L113.37931,108.413793 L96,108.413793 Z M109.034483,117.241379 L100.344828,117.241379 L100.344828,112.827586 L109.034483,112.827586 L109.034483,117.241379 Z" id="Shape"></path>
                    <path d="M69.0206897,21.1862069 L69.0206897,8.27586207 L51.8068966,8.27586207 L51.8068966,21.1862069 L38.8965517,21.1862069 L38.8965517,38.4 L51.8068966,38.4 L51.8068966,51.3103448 L69.0206897,51.3103448 L69.0206897,38.4 L81.9310345,38.4 L81.9310345,21.1862069 L69.0206897,21.1862069 Z M77.6275862,34.0965517 L64.7172414,34.0965517 L64.7172414,47.0068966 L56.1103448,47.0068966 L56.1103448,34.0965517 L43.2,34.0965517 L43.2,25.4896552 L56.1103448,25.4896552 L56.1103448,12.5793103 L64.7172414,12.5793103 L64.7172414,25.4896552 L77.6275862,25.4896552 L77.6275862,34.0965517 Z" id="Shape"></path>
                    <path d="M91.2413793,47.6413793 L91.2413793,0 L30.4137931,0 L30.4137931,47.6413793 L0,47.6413793 L0,129.931034 L121.655172,129.931034 L121.655172,47.6413793 L91.2413793,47.6413793 Z M30.4137931,125.6 L4.34482759,125.6 L4.34482759,51.9724138 L30.4137931,51.9724138 L30.4137931,125.6 Z M58.6551724,125.6 L47.7931034,125.6 L47.7931034,86.6206897 L58.6551724,86.6206897 L58.6551724,125.6 Z M73.862069,125.6 L63,125.6 L63,86.6206897 L73.862069,86.6206897 L73.862069,125.6 Z M86.8965517,125.6 L78.2068966,125.6 L78.2068966,82.2896552 L43.4482759,82.2896552 L43.4482759,125.6 L34.7586207,125.6 L34.7586207,4.33103448 L86.8965517,4.33103448 L86.8965517,125.6 Z M117.310345,125.6 L91.2413793,125.6 L91.2413793,51.9724138 L117.310345,51.9724138 L117.310345,125.6 Z" id="Shape"></path>
                    <path d="M8.27586207,56.2758621 L8.27586207,69.5172414 L25.6551724,69.5172414 L25.6551724,56.2758621 L8.27586207,56.2758621 Z M21.3103448,65.1034483 L12.6206897,65.1034483 L12.6206897,60.6896552 L21.3103448,60.6896552 L21.3103448,65.1034483 Z" id="Shape"></path>
                    <path d="M8.27586207,73.6551724 L8.27586207,86.8965517 L25.6551724,86.8965517 L25.6551724,73.6551724 L8.27586207,73.6551724 Z M21.3103448,82.4827586 L12.6206897,82.4827586 L12.6206897,78.0689655 L21.3103448,78.0689655 L21.3103448,82.4827586 Z" id="Shape"></path>
                    <path d="M8.27586207,91.0344828 L8.27586207,104.275862 L25.6551724,104.275862 L25.6551724,91.0344828 L8.27586207,91.0344828 Z M21.3103448,99.862069 L12.6206897,99.862069 L12.6206897,95.4482759 L21.3103448,95.4482759 L21.3103448,99.862069 Z" id="Shape"></path>
                    <path d="M8.27586207,108.413793 L8.27586207,121.655172 L25.6551724,121.655172 L25.6551724,108.413793 L8.27586207,108.413793 Z M21.3103448,117.241379 L12.6206897,117.241379 L12.6206897,112.827586 L21.3103448,112.827586 L21.3103448,117.241379 Z" id="Shape"></path>
                </g>
            </g>
        </g>
    </g>
</svg>