<?xml version="1.0" encoding="UTF-8"?>
<svg width="240px" height="240px" viewBox="0 0 240 240" version="1.1" xmlns="http://www.w3.org/2000/svg" xmlns:xlink="http://www.w3.org/1999/xlink">
    <!-- Generator: Sketch 47.1 (45422) - http://www.bohemiancoding.com/sketch -->
    <title>Group 3</title>
    <desc>Created with Sketch.</desc>
    <defs>
        <radialGradient cx="50%" cy="50%" fx="50%" fy="50%" r="50%" id="radialGradient-1">
            <stop stop-color="#FFFFFF" offset="0%"></stop>
            <stop stop-color="#DBE2DD" offset="100%"></stop>
        </radialGradient>
    </defs>
    <g id="Desktop-HD-v2" stroke="none" stroke-width="1" fill="none" fill-rule="evenodd">
        <g id="Desktop-HD---Landing" transform="translate(-595.000000, -1144.000000)">
            <g id="Group-3" transform="translate(595.000000, 1144.000000)">
                <circle id="Oval" fill="url(#radialGradient-1)" cx="120" cy="120" r="120"></circle>
                <g id="005-equipo" transform="translate(38.000000, 58.000000)" fill-rule="nonzero" fill="#000000">
                    <path d="M55.0344828,110.068966 C53.8918621,110.068966 52.9655172,111.131829 52.9655172,112.442842 L52.9655172,122.59164 C52.9655172,123.902653 53.8918621,124.965517 55.0344828,124.965517 C56.1771034,124.965517 57.1034483,123.902653 57.1034483,122.59164 L57.1034483,112.442842 C57.1034483,111.131829 56.1771034,110.068966 55.0344828,110.068966 Z" id="Shape"></path>
                    <path d="M106.344828,110.068966 C105.202207,110.068966 104.275862,111.131829 104.275862,112.442842 L104.275862,122.59164 C104.275862,123.902653 105.202207,124.965517 106.344828,124.965517 C107.487448,124.965517 108.413793,123.902653 108.413793,122.59164 L108.413793,112.442842 C108.413793,111.131829 107.487448,110.068966 106.344828,110.068966 Z" id="Shape"></path>
                    <path d="M37.5365129,59.1261212 C31.8258327,56.308222 21.1189632,56.2758621 20.6658074,56.2758621 C19.3079798,56.2758621 18.2072245,57.36186 18.2068966,58.7022066 C18.2065687,60.0422297 19.3069961,61.1291984 20.6651516,61.1298456 C23.4319591,61.1314636 31.4605538,61.5547309 35.3369698,63.467524 C35.6901164,63.6419438 36.0652323,63.7241379 36.4347739,63.7241379 C37.3368227,63.7241379 38.2054258,63.2322676 38.6362844,62.3821733 C39.2438803,61.1832394 38.7513768,59.7254263 37.5365129,59.1261212 Z" id="Shape"></path>
                    <path d="M12,104.275862 C10.8573793,104.275862 9.93103448,105.376958 9.93103448,106.73513 L9.93103448,122.50625 C9.93103448,123.864421 10.8573793,124.965517 12,124.965517 C13.1426207,124.965517 14.0689655,123.864421 14.0689655,122.50625 L14.0689655,106.73513 C14.0689655,105.377286 13.1428966,104.275862 12,104.275862 Z" id="Shape"></path>
                    <path d="M157.480813,95.9036133 L147.809576,91.0601221 C147.753533,91.0320513 147.718506,90.9752717 147.718506,90.9127503 L147.719143,86.0434212 C151.689279,83.3049221 154.49939,78.9756371 155.202474,73.89482 C156.988208,70.8035217 157.929157,67.3118954 157.929157,63.7615755 C157.929157,57.1410105 154.746807,51.2518816 149.835084,47.5458963 C150.122941,46.5854279 150.271646,45.5946558 150.271646,44.5837876 C150.271646,38.329738 144.619901,33.2415842 137.673436,33.2415842 C130.72697,33.2415842 125.075226,38.329738 125.075226,44.5837876 C125.075226,45.5959318 125.222338,46.5870228 125.510196,47.5468533 C122.581631,49.7567918 120.272405,52.7450574 118.882156,56.1996813 C118.290202,50.3721168 117.673729,43.4829651 117.082412,35.4579025 C116.302268,24.8694643 112.500897,15.9276344 106.089706,9.59958004 C99.7272341,3.31937362 91.2300336,0 81.5170822,0 C71.8041308,0 63.3069302,3.31937362 56.9450951,9.59926105 C50.533904,15.9276344 46.7325332,24.8694643 45.9523892,35.4575835 C45.7450938,38.2688116 45.5349326,40.9333059 45.3238161,43.4695677 L22.8085433,43.4695677 C14.4543161,43.4695677 7.65751091,50.2783347 7.65751091,58.6472648 L7.65751091,58.7898518 C7.65751091,60.7388594 8.1173182,62.6907378 8.98757673,64.4339991 L10.2100145,66.8834965 L10.2100145,70.7894863 C10.2100145,76.9797385 13.2551234,82.5342506 17.8675254,85.8769103 L17.8675254,89.3321722 C17.8675254,89.7752444 17.5704339,90.1695118 17.145335,90.2913646 L7.28590764,93.1134383 C2.9960712,94.3408983 0,98.3199361 0,102.789256 L0,122.573118 C0,123.894361 1.06927485,124.965517 2.38819577,124.965517 C3.70711668,124.965517 4.77639153,123.894361 4.77639153,122.573118 L4.77639153,102.789256 C4.77639153,100.444705 6.34814277,98.3575765 8.59814161,97.7135427 L18.4578874,94.8914691 C18.8135694,94.7897124 19.1514195,94.6515912 19.4730299,94.4876321 L25.5253548,100.550609 L25.5253548,122.573118 C25.5253548,123.894361 26.5946296,124.965517 27.9135505,124.965517 C29.2324715,124.965517 30.3017463,123.894361 30.3017463,122.573118 L30.3017463,100.550609 L36.3964219,94.4452069 C37.2109559,94.845535 38.022624,95.0783952 38.617444,95.248734 L41.0384376,95.9415727 C37.7576935,98.2784678 35.7356877,102.090038 35.7356877,106.223146 L35.7356877,122.57248 C35.7356877,123.893723 36.8049626,124.964879 38.1238835,124.964879 C39.4428044,124.964879 40.5120793,123.893723 40.5120793,122.57248 L40.5120793,106.223146 C40.5120793,103.121959 42.3420741,100.308498 45.1741558,99.055519 L58.8282671,93.0142335 C63.1069586,101.597841 71.8503026,107.065908 81.5174006,107.065908 C91.2204808,107.065908 99.9345295,101.609963 104.210674,93.0161474 L117.860645,99.055519 C120.692727,100.308498 122.522722,103.121959 122.522722,106.223146 L122.522722,122.57248 C122.522722,123.893723 123.591997,124.964879 124.910918,124.964879 C126.229839,124.964879 127.299113,123.893723 127.299113,122.57248 L127.299113,106.223146 C127.299113,103.162789 126.188762,100.279789 124.282981,98.03859 L127.978953,96.1875113 L130.7534,98.8287196 C132.693888,100.676289 135.183344,101.599436 137.673754,101.599436 C140.16321,101.599436 142.653939,100.675651 144.59379,98.8287196 L147.367919,96.1878302 L155.345129,100.183136 C157.142008,101.082997 158.258091,102.892289 158.258091,104.904775 L158.258091,122.572799 C158.258091,123.894042 159.327366,124.965198 160.646287,124.965198 C161.965208,124.965198 163.034483,123.894042 163.034483,122.572799 L163.034483,104.904775 C163.034164,101.068643 160.906123,97.6194417 157.480813,95.9036133 Z M137.673117,38.0260629 C141.985881,38.0260629 145.494936,40.9677565 145.494936,44.5834686 C145.494936,44.7349872 145.482836,44.8852298 145.470736,45.0351535 C143.069166,44.0277941 140.435145,43.4695677 137.673117,43.4695677 C134.911408,43.4695677 132.277706,44.0277941 129.876773,45.0348345 C129.864354,44.8849108 129.851299,44.7349872 129.851299,44.5834686 C129.851299,40.9677565 133.360354,38.0260629 137.673117,38.0260629 Z M27.913869,96.1766657 L22.4719669,90.7251863 C22.5843713,90.2760532 22.6445538,89.808738 22.6445538,89.3318532 L22.6445538,88.3225799 C24.1468882,88.81669 25.7313765,89.1098386 27.3709525,89.1589625 C27.5546843,89.1647042 27.7374609,89.1672561 27.9205559,89.1672561 C29.7317636,89.1672561 31.4999837,88.8932467 33.1825473,88.3704278 L33.1825473,89.3308962 C33.1825473,89.8498873 33.2357244,90.3207114 33.330297,90.7507052 L27.913869,96.1766657 Z M27.5142442,84.3757598 C20.6063084,84.1687375 14.9864061,78.0735433 14.9864061,70.7894863 L14.9864061,66.3185714 C14.9864061,65.9472711 14.9001126,65.5807556 14.7342126,65.2486907 L13.2595813,62.2942376 C12.7195307,61.2115974 12.4339024,60.0000866 12.4339024,58.7898518 L12.4339024,58.6472648 C12.4339024,52.9166722 17.0880183,48.2543653 22.8085433,48.2543653 L43.3935171,48.2543653 L43.3935171,58.1860103 C43.3935171,59.7908315 43.0149084,61.3982045 42.2981313,62.8336438 L41.0928885,65.2483717 C40.9269885,65.5807556 40.840695,65.9469521 40.840695,66.3182524 L40.840695,71.4322441 C40.840695,74.9647008 39.4466255,78.2655732 36.915138,80.7262351 C34.3849242,83.1856211 31.044316,84.4829392 27.5142442,84.3757598 Z M47.4741476,92.8072112 L39.9296779,90.6479915 C37.9586204,90.0840234 37.9589388,89.8639227 37.9589388,89.3315342 L37.9595756,86.0354466 C38.761691,85.4788151 39.5265505,84.8558345 40.2420539,84.1601249 C40.7235142,83.6921717 41.1718582,83.1996565 41.5921806,82.6892781 C41.9758841,83.4688811 42.5640171,84.1499173 43.3241002,84.6427515 C45.2384779,85.884566 48.851022,87.9474517 54.1636431,89.8473354 L47.4741476,92.8072112 Z M81.5170822,102.28143 C73.7468484,102.28143 66.7096316,97.9304535 63.2002575,91.0802182 L66.6765152,89.5420653 C69.3895056,88.3417191 71.1424413,85.646602 71.1424413,82.6755617 L71.1424413,76.9350804 C74.3512212,78.2266568 77.8526346,78.9389537 81.5170822,78.9389537 C85.1815298,78.9389537 88.6826247,78.2266568 91.891723,76.9350804 L91.891723,82.6755617 C91.891723,85.646602 93.6446587,88.342038 96.3576491,89.5420653 L99.83327,91.0798993 C96.3264433,97.9377902 89.3162927,102.28143 81.5170822,102.28143 Z M102.225605,86.9075557 L98.2873113,85.1649324 C97.303693,84.7298348 96.6681145,83.7524601 96.6681145,82.6752427 L96.6681145,74.4501755 C104.34282,69.4621835 109.430951,60.8032946 109.430951,50.9759582 L109.430951,46.4900509 C109.430951,43.5745142 108.193547,40.8242126 106.035892,38.944744 C101.237529,34.7641068 90.3756963,27.4685664 71.5446135,25.5820801 C70.2355638,25.4506577 69.0618452,26.4095311 68.9306536,27.7247125 C68.7994621,29.0395749 69.7569694,30.2118503 71.0695218,30.3432728 C88.5845495,32.0976986 98.5312257,38.7476104 102.901624,42.5553523 C104.015797,43.5257093 104.65456,44.9601916 104.65456,46.4900509 L104.65456,50.9759582 C104.65456,63.7561528 94.2751424,74.1538371 81.5174006,74.1538371 C68.7596588,74.1538371 58.3802416,63.7561528 58.3802416,50.9759582 L58.3802416,48.9746369 C58.3802416,48.0553178 58.8890865,47.2131934 59.7411947,46.7216352 C62.7270763,44.999427 66.6647335,41.8089239 68.4679805,36.3903001 C68.8851187,35.1370021 68.2087817,33.7819474 66.9573671,33.364075 C65.7065893,32.9462027 64.3535968,33.6237301 63.9364586,34.877347 C62.6079849,38.8697822 59.6256061,41.2669658 57.3577754,42.5751295 C55.0421808,43.910726 53.6035316,46.3630943 53.6035316,48.9749559 L53.6035316,50.9762772 C53.6035316,60.8039326 58.6913439,69.4625024 66.3663682,74.4504945 L66.3663682,82.6755617 C66.3663682,83.7527791 65.7307897,84.7298348 64.7471715,85.1652514 L60.808559,86.9078747 C53.1166581,84.8462649 48.1880589,82.0975581 45.9199098,80.6267113 C45.8746933,80.5973646 45.8492192,80.563871 45.8619562,80.4882712 C46.6949589,75.5554638 48.8354192,61.3270705 50.7160437,35.8100636 C51.4095758,26.3951768 54.7227994,18.5098302 60.2974851,13.0073129 C65.7473479,7.6282434 73.0848406,4.78479765 81.5170822,4.78479765 C89.9493238,4.78479765 97.2868165,7.6282434 102.736679,13.0073129 C108.311365,18.5098302 111.624589,26.3948578 112.318439,35.8097446 C114.198745,61.3257945 116.339205,75.5548258 117.172527,80.4879522 C117.185264,80.563871 117.159789,80.5973646 117.114255,80.6267113 C114.842921,82.099472 109.914322,84.8465839 102.225605,86.9075557 Z M127.627411,90.9124313 C127.627411,90.9752717 127.592702,91.0317323 127.536659,91.0598031 L120.054283,94.8075756 C119.965442,94.7657884 119.880104,94.7188974 119.790308,94.679024 L108.871158,89.8479734 C114.181232,87.9487277 117.793139,85.8867989 119.710064,84.6433895 C121.356964,83.5751036 122.209709,81.6311998 121.882049,79.6901669 C121.864217,79.5839444 121.844793,79.4675143 121.825687,79.3526792 C123.168808,82.0583228 125.177122,84.3534307 127.627411,86.0434212 L127.627411,90.9124313 Z M141.302538,95.3606982 C139.267477,97.2988603 136.078758,97.2985413 134.04306,95.3606982 L131.823311,93.2477316 C132.197781,92.5446853 132.403484,91.747219 132.403484,90.9124313 L132.403484,88.3666 C134.0714,88.8849531 135.840575,89.1669372 137.672799,89.1669372 C139.504704,89.1669372 141.274198,88.8849531 142.941796,88.3666 L142.941477,90.9117934 C142.941477,91.747219 143.147181,92.5446853 143.521968,93.2480506 L141.302538,95.3606982 Z M137.673117,84.3818205 C131.060681,84.3818205 125.537899,79.4215803 124.826853,72.8437595 C124.788642,72.4912794 124.673053,72.1518777 124.487729,71.8494785 C122.986669,69.4006191 122.193469,66.6037453 122.193469,63.7609376 C122.193469,55.2108231 129.137387,48.2543653 137.673117,48.2543653 C146.208529,48.2543653 153.152766,55.2108231 153.152766,63.7612566 C153.152766,65.4094599 152.884332,67.0420328 152.367527,68.6006009 C145.586324,61.6993278 133.657127,58.9946411 133.08205,58.8676845 C132.375781,58.7117001 131.636395,58.8852288 131.072144,59.3391466 C130.508212,59.7933834 130.179914,60.4792044 130.179914,61.2039417 C130.179914,61.219572 130.071013,62.8792589 128.326993,64.626348 C127.394323,65.5606595 127.394323,67.0755264 128.326993,68.0095189 C129.259663,68.9438304 130.771869,68.9438304 131.70422,68.0095189 C133.047341,66.6640338 133.836401,65.2984525 134.299393,64.1453163 C138.31793,65.3411967 146.658465,68.361361 150.401564,73.6625978 C149.339295,79.8282881 144.007568,84.3818205 137.673117,84.3818205 Z" id="Shape"></path>
                    <path d="M150.206897,108.413793 C149.064276,108.413793 148.137931,109.458798 148.137931,110.747783 L148.137931,122.631527 C148.137931,123.920512 149.064276,124.965517 150.206897,124.965517 C151.349517,124.965517 152.275862,123.920512 152.275862,122.631527 L152.275862,110.747783 C152.275862,109.458798 151.349517,108.413793 150.206897,108.413793 Z" id="Shape"></path>
                </g>
            </g>
        </g>
    </g>
</svg>