<?xml version="1.0" encoding="utf-8"?>
<!-- Generator: Adobe Illustrator 21.0.0, SVG Export Plug-In . SVG Version: 6.00 Build 0)  -->
<svg version="1.1" id="Contorno" xmlns="http://www.w3.org/2000/svg" xmlns:xlink="http://www.w3.org/1999/xlink" x="0px" y="0px"
	 viewBox="0 0 1417.3 1417.3" style="enable-background:new 0 0 1417.3 1417.3;" xml:space="preserve">
<style type="text/css">
	.st0{fill:none;stroke:black;stroke-width:0;stroke-miterlimit:0;}
</style>
<g id="XMLID_1_">
	<g>
		<path d="M1278.8,697.9c-85.6-76.7-186.9,75.4-239.8,100.6c-60,28.6-98.9-18.7-135.6,31.9c-19.9,27.4-67.8,32.1-94.2,32.5
			c-6.5,0.1-9.5-8-4.7-12.2c89-77.7,94.9-94.5,79-169.9c-28.7-136,131.7-379.3,37.9-420.8c-44.5-19.7-195.1,325.2-167.5,335
			c46,16.4,21.9,37.8,17.7,37.4c-105-10.1-262.7,4.9-409.4,99.2c-41.6,26.8-3.2-30.5,0.9-46.8c3.8-15-160.9-202.1-201.7-173.6
			c-72.4,50.6,152.2,266.9,139.9,287.2c-66.8,110-17.6,254.6-2.3,297.3c44.6,124.4,279.1,113.5,255.6,149.4
			c-14.7,22.5-154.3,30.6-230.2-40c-212.7-197.8-53.2-323.4-82.9-392.8c-29.1-68-199.8-305.9-117.7-339
			c71.9-29,186.8,66.2,189.5,73.8c-3.3-16.5-46.5-256.1,19.9-297.1c87.2-53.8,181.4,219.9,185.5,219.4
			c4.2-0.6-13.3-278.4,81.8-301.1C708.7,142.4,714.9,473.4,734,479.4c29.5,9.3,77.4-296.5,191.4-269.1
			c187.8,45-91.6,531.1,31.9,540.9c82.3,6.5,254.7-211.5,362.4-97c64.2,68.3-26.7,179.1-111.2,225.7
			c-79.6,43.9-190.6,193.7-237.1,315.4c-42.5,111-249.1,92.5-265.2,69.8c-28.1-39.8,149.4-9.4,209.4-81.8
			c25-30.2,51.5-114.2,98.1-187.5C1069.4,908,1333.6,747,1278.8,697.9z M690.1,595.1c45.4,35.9-25.2-353-71.5-380.9
			c-49-29.6-111.3,425.6-71.5,407.6C562,615.2,675.9,583.9,690.1,595.1z M508.9,637.3c27.5,38.1-88.2-362.3-151.9-343.4
			c-73.8,21.9,37,428.6,37.9,372.9C395,666.9,504.9,631.7,508.9,637.3z"/>
		<path d="M883.5,960c8-4-19.9,46.5-88,74.5c-105.3,43.2-225.4,42.8-350.2-33.4c-36.2-22.1-61-63.4-50.4-59
			C618.4,1034.9,708.7,1048.2,883.5,960z"/>
		<path d="M672.2,778.6c53.8,3.9,21.5,109.9,2.1,118.2C616.1,921.7,643.7,776.5,672.2,778.6z"/>
		<path d="M590.4,782.6c39.6-4.7,34.5,130.1-21.1,106.2C542.4,877.2,556.8,786.5,590.4,782.6z"/>
	</g>
	<g>
		<path class="st0" d="M313.2,547.2c-3.3-16.5-46.5-256.1,19.9-297.1c87.2-53.8,181.4,219.9,185.5,219.4
			c4.2-0.6-13.3-278.4,81.8-301.1C708.7,142.4,714.9,473.4,734,479.4c29.5,9.3,77.4-296.5,191.4-269.1
			c187.8,45-91.6,531.1,31.9,540.9c82.3,6.5,254.7-211.5,362.4-97c64.2,68.3-26.7,179.1-111.2,225.7
			c-79.6,43.9-190.6,193.7-237.1,315.4c-42.5,111-249.1,92.5-265.2,69.8c-28.1-39.8,149.4-9.4,209.4-81.8
			c25-30.2,51.5-114.2,98.1-187.5c55.8-87.9,320.1-248.9,265.3-298c-85.6-76.7-186.9,75.4-239.8,100.6
			c-60,28.6-98.9-18.7-135.6,31.9c-19.9,27.4-67.8,32.1-94.2,32.5c-6.5,0.1-9.5-8-4.7-12.2c89-77.7,94.9-94.5,79-169.9
			c-28.7-136,131.7-379.3,37.9-420.8c-44.5-19.7-195.1,325.2-167.5,335c46,16.4,21.9,37.8,17.7,37.4c-105-10.1-262.7,4.9-409.4,99.2
			c-41.6,26.8-3.2-30.5,0.9-46.8c3.8-15-160.9-202.1-201.7-173.6c-72.4,50.6,152.2,266.9,139.9,287.2
			c-66.8,110-17.6,254.6-2.3,297.3c44.6,124.4,279.1,113.5,255.6,149.4c-14.7,22.5-154.3,30.6-230.2-40
			c-212.7-197.8-53.2-323.4-82.9-392.8c-29.1-68-199.8-305.9-117.7-339C195.7,444.5,310.5,539.6,313.2,547.2z"/>
		<path class="st0" d="M508.9,637.3c-4.1-5.6-114,29.5-114,29.5c-0.9,55.7-111.7-351-37.9-372.9
			C420.7,275.1,536.4,675.4,508.9,637.3z"/>
		<path class="st0" d="M547.2,621.8c14.8-6.7,128.7-37.9,142.9-26.7c45.4,35.9-25.2-353-71.5-380.9
			C569.7,184.6,507.3,639.8,547.2,621.8z"/>
		<path class="st0" d="M569.3,888.7c-26.9-11.6-12.5-102.2,21.1-106.2C630,777.9,624.9,912.7,569.3,888.7z"/>
		<path class="st0" d="M672.2,778.6c-28.4-2-56.1,143.1,2.1,118.2C693.6,888.5,726,782.4,672.2,778.6z"/>
		<path class="st0" d="M883.5,960c-174.9,88.1-265.1,74.8-488.6-17.9c-10.6-4.4,14.2,36.9,50.4,59c124.9,76.3,244.9,76.6,350.2,33.4
			C863.7,1006.6,891.6,956,883.5,960z"/>
	</g>
</g>
</svg>
